<svg width="48" height="48" viewBox="0 0 48 48" fill="none" xmlns="http://www.w3.org/2000/svg">
<path d="M24 6C23.4091 6 22.8239 6.1164 22.2779 6.34254C21.732 6.56869 21.2359 6.90016 20.818 7.31802C20.4002 7.73588 20.0687 8.23196 19.8425 8.77792C19.6164 9.32389 19.5 9.90905 19.5 10.5C19.5 11.0909 19.6164 11.6761 19.8425 12.2221C20.0687 12.768 20.4002 13.2641 20.818 13.682C21.2359 14.0998 21.732 14.4313 22.2779 14.6575C22.8239 14.8836 23.4091 15 24 15C25.1935 15 26.3381 14.5259 27.182 13.682C28.0259 12.8381 28.5 11.6935 28.5 10.5C28.5 9.30653 28.0259 8.16193 27.182 7.31802C26.3381 6.47411 25.1935 6 24 6ZM16.5 10.5C16.5 8.51088 17.2902 6.60322 18.6967 5.1967C20.1032 3.79018 22.0109 3 24 3C25.9891 3 27.8968 3.79018 29.3033 5.1967C30.7098 6.60322 31.5 8.51088 31.5 10.5C31.5 12.4891 30.7098 14.3968 29.3033 15.8033C27.8968 17.2098 25.9891 18 24 18C22.0109 18 20.1032 17.2098 18.6967 15.8033C17.2902 14.3968 16.5 12.4891 16.5 10.5ZM12 25.5C12.002 24.952 12.058 24.422 12.168 23.91L6.336 25.47C5.76508 25.6231 5.22992 25.8873 4.76111 26.2473C4.29229 26.6073 3.89899 27.0562 3.60368 27.5682C3.30837 28.0803 3.11684 28.6455 3.04003 29.2316C2.96321 29.8177 3.00262 30.4131 3.156 30.984L4.32 35.331C4.63295 36.4974 5.17744 37.5889 5.92105 38.5405C6.66465 39.492 7.59216 40.2842 8.64833 40.8698C9.7045 41.4554 10.8677 41.8225 12.0687 41.9491C13.2697 42.0758 14.4839 41.9594 15.639 41.607C14.8367 40.8287 14.147 39.9421 13.59 38.973C12.1768 39.1094 10.7609 38.7403 9.59423 37.9312C8.42752 37.122 7.58555 35.9254 7.218 34.554L6.051 30.204C5.94842 29.8197 6.00267 29.4104 6.20183 29.0661C6.40098 28.7218 6.72873 28.4707 7.113 28.368L12 27.06V25.5ZM32.658 41.694L32.358 41.61C33.159 40.83 33.852 39.945 34.41 38.973C35.8232 39.1094 37.2391 38.7403 38.4058 37.9312C39.5725 37.122 40.4144 35.9254 40.782 34.554L41.946 30.204C42.0487 29.8201 41.9948 29.4112 41.7963 29.0669C41.5977 28.7227 41.2707 28.4713 40.887 28.368L36 27.06V25.5C35.998 24.952 35.942 24.422 35.832 23.91L41.661 25.47C42.2322 25.6228 42.7677 25.8867 43.2368 26.2466C43.706 26.6065 44.0996 27.0553 44.3952 27.5674C44.6908 28.0795 44.8826 28.6448 44.9596 29.231C45.0366 29.8173 44.9973 30.4129 44.844 30.984L43.68 35.331C43.0614 37.6357 41.5527 39.6004 39.4858 40.7931C37.4189 41.9857 34.963 42.3117 32.658 41.694ZM6 15C6 14.2044 6.31607 13.4413 6.87868 12.8787C7.44129 12.3161 8.20435 12 9 12C9.79565 12 10.5587 12.3161 11.1213 12.8787C11.6839 13.4413 12 14.2044 12 15C12 15.7956 11.6839 16.5587 11.1213 17.1213C10.5587 17.6839 9.79565 18 9 18C8.20435 18 7.44129 17.6839 6.87868 17.1213C6.31607 16.5587 6 15.7956 6 15ZM9 9C7.4087 9 5.88258 9.63214 4.75736 10.7574C3.63214 11.8826 3 13.4087 3 15C3 16.5913 3.63214 18.1174 4.75736 19.2426C5.88258 20.3679 7.4087 21 9 21C10.5913 21 12.1174 20.3679 13.2426 19.2426C14.3679 18.1174 15 16.5913 15 15C15 13.4087 14.3679 11.8826 13.2426 10.7574C12.1174 9.63214 10.5913 9 9 9ZM39 12C38.2043 12 37.4413 12.3161 36.8787 12.8787C36.3161 13.4413 36 14.2044 36 15C36 15.7956 36.3161 16.5587 36.8787 17.1213C37.4413 17.6839 38.2043 18 39 18C39.7957 18 40.5587 17.6839 41.1213 17.1213C41.6839 16.5587 42 15.7956 42 15C42 14.2044 41.6839 13.4413 41.1213 12.8787C40.5587 12.3161 39.7957 12 39 12ZM33 15C33 13.4087 33.6321 11.8826 34.7574 10.7574C35.8826 9.63214 37.4087 9 39 9C40.5913 9 42.1174 9.63214 43.2426 10.7574C44.3679 11.8826 45 13.4087 45 15C45 16.5913 44.3679 18.1174 43.2426 19.2426C42.1174 20.3679 40.5913 21 39 21C37.4087 21 35.8826 20.3679 34.7574 19.2426C33.6321 18.1174 33 16.5913 33 15ZM19.5 21C18.3065 21 17.1619 21.4741 16.318 22.318C15.4741 23.1619 15 24.3065 15 25.5V33C15 35.3869 15.9482 37.6761 17.636 39.364C19.3239 41.0518 21.6131 42 24 42C26.3869 42 28.6761 41.0518 30.364 39.364C32.0518 37.6761 33 35.3869 33 33V25.5C33 24.3065 32.5259 23.1619 31.682 22.318C30.8381 21.4741 29.6935 21 28.5 21H19.5ZM18 25.5C18 25.1022 18.158 24.7206 18.4393 24.4393C18.7206 24.158 19.1022 24 19.5 24H28.5C28.8978 24 29.2794 24.158 29.5607 24.4393C29.842 24.7206 30 25.1022 30 25.5V33C30 34.5913 29.3679 36.1174 28.2426 37.2426C27.1174 38.3679 25.5913 39 24 39C22.4087 39 20.8826 38.3679 19.7574 37.2426C18.6321 36.1174 18 34.5913 18 33V25.5Z" fill="#F0E29F"/>
</svg>
