<svg width="45" height="45" viewBox="0 0 45 45" fill="none" xmlns="http://www.w3.org/2000/svg">
<path d="M14.0626 6.5625C12.5092 6.5625 11.25 7.82175 11.25 9.375C11.25 10.9283 12.5092 12.1875 14.0626 12.1875C15.6161 12.1875 16.8753 10.9283 16.8753 9.375C16.8753 7.82175 15.6161 6.5625 14.0626 6.5625ZM8.4375 9.375C8.4375 6.26835 10.956 3.75 14.0626 3.75C17.1693 3.75 19.6877 6.26835 19.6877 9.375C19.6877 12.4817 17.1693 15 14.0626 15C10.956 15 8.4375 12.4817 8.4375 9.375ZM7.0647 16.875C5.23404 16.875 3.75 18.359 3.75 20.1896V20.8635C3.74998 21.2541 3.74989 23.505 5.06411 25.6926C6.08938 27.399 7.83105 28.9314 10.6411 29.6183C11.0271 28.5887 11.7307 27.7146 12.6327 27.1147C9.62541 26.793 8.20434 25.458 7.47497 24.2441C6.56738 22.7334 6.5625 21.1254 6.5625 20.8594V20.1896C6.5625 19.9123 6.78735 19.6875 7.0647 19.6875H15.058C15.1845 18.6732 15.5135 17.7217 16.0034 16.875H7.0647ZM28.9969 16.875C29.4868 17.7217 29.8157 18.6732 29.9423 19.6875H37.9354C38.2127 19.6875 38.4375 19.9123 38.4375 20.1896V20.8594C38.4375 21.1254 38.4326 22.7334 37.5251 24.2441C36.7957 25.458 35.3745 26.793 32.3674 27.1147C33.2692 27.7146 33.9729 28.5887 34.3588 29.6183C37.1689 28.9314 38.9106 27.399 39.9358 25.6926C41.2502 23.505 41.25 21.2541 41.25 20.8635V20.1896C41.25 18.359 39.7659 16.875 37.9354 16.875H28.9969ZM28.125 9.375C28.125 7.82175 29.3842 6.5625 30.9377 6.5625C32.4911 6.5625 33.7502 7.82175 33.7502 9.375C33.7502 10.9283 32.4911 12.1875 30.9377 12.1875C29.3842 12.1875 28.125 10.9283 28.125 9.375ZM30.9377 3.75C27.831 3.75 25.3125 6.26835 25.3125 9.375C25.3125 12.4817 27.831 15 30.9377 15C34.0442 15 36.5627 12.4817 36.5627 9.375C36.5627 6.26835 34.0442 3.75 30.9377 3.75ZM22.5002 17.8125C20.9468 17.8125 19.6875 19.0717 19.6875 20.625C19.6875 22.1783 20.9468 23.4375 22.5002 23.4375C24.0536 23.4375 25.3127 22.1783 25.3127 20.625C25.3127 19.0717 24.0536 17.8125 22.5002 17.8125ZM16.875 20.625C16.875 17.5183 19.3935 15 22.5002 15C25.6067 15 28.1252 17.5183 28.1252 20.625C28.1252 23.7317 25.6067 26.25 22.5002 26.25C19.3935 26.25 16.875 23.7317 16.875 20.625ZM12.1875 31.4396C12.1875 29.6091 13.6715 28.125 15.5022 28.125H29.4979C31.3284 28.125 32.8125 29.6091 32.8125 31.4396V32.1135C32.8125 32.5041 32.8127 34.755 31.4983 36.9426C30.1084 39.2563 27.4013 41.25 22.5 41.25C17.5987 41.25 14.8917 39.2563 13.5016 36.9426C12.1874 34.755 12.1875 32.5041 12.1875 32.1135V31.4396ZM15.5022 30.9375C15.2249 30.9375 15 31.1623 15 31.4396V32.1094C15 32.3754 15.0049 33.9834 15.9125 35.4941C16.7489 36.8863 18.4951 38.4375 22.5 38.4375C26.505 38.4375 28.251 36.8863 29.0876 35.4941C29.9951 33.9834 30 32.3754 30 32.1094V31.4396C30 31.1623 29.7752 30.9375 29.4979 30.9375H15.5022Z" fill="#0C2C34"/>
</svg>
