<svg width="63" height="59" viewBox="0 0 63 59" fill="none" xmlns="http://www.w3.org/2000/svg">
<path d="M31.5 4.5C30.6136 4.5 29.7358 4.67459 28.9169 5.01381C28.0979 5.35303 27.3538 5.85023 26.727 6.47703C26.1002 7.10383 25.603 7.84794 25.2638 8.66689C24.9246 9.48583 24.75 10.3636 24.75 11.25C24.75 12.1364 24.9246 13.0142 25.2638 13.8331C25.603 14.6521 26.1002 15.3962 26.727 16.023C27.3538 16.6498 28.0979 17.147 28.9169 17.4862C29.7358 17.8254 30.6136 18 31.5 18C33.2902 18 35.0071 17.2888 36.273 16.023C37.5388 14.7571 38.25 13.0402 38.25 11.25C38.25 9.45979 37.5388 7.7429 36.273 6.47703C35.0071 5.21116 33.2902 4.5 31.5 4.5ZM20.25 11.25C20.25 8.26631 21.4353 5.40483 23.545 3.29505C25.6548 1.18526 28.5163 0 31.5 0C34.4837 0 37.3452 1.18526 39.455 3.29505C41.5647 5.40483 42.75 8.26631 42.75 11.25C42.75 14.2337 41.5647 17.0952 39.455 19.205C37.3452 21.3147 34.4837 22.5 31.5 22.5C28.5163 22.5 25.6548 21.3147 23.545 19.205C21.4353 17.0952 20.25 14.2337 20.25 11.25ZM13.5 33.75C13.503 32.928 13.587 32.133 13.752 31.365L5.004 33.705C4.14762 33.9347 3.34489 34.3309 2.64166 34.8709C1.93843 35.411 1.34848 36.0842 0.905523 36.8523C0.462562 37.6204 0.175265 38.4682 0.0600429 39.3474C-0.0551791 40.2265 0.00393257 41.1197 0.234 41.976L1.98 48.4965C2.44942 50.2461 3.26616 51.8833 4.38157 53.3107C5.49698 54.738 6.88825 55.9263 8.4725 56.8047C10.0567 57.6831 11.8016 58.2337 13.6031 58.4237C15.4046 58.6137 17.2259 58.4391 18.9585 57.9105C17.755 56.7431 16.7205 55.4132 15.885 53.9595C13.7651 54.1641 11.6414 53.6104 9.89134 52.3967C8.14128 51.1831 6.87832 49.3881 6.327 47.331L4.5765 40.806C4.42263 40.2296 4.50401 39.6156 4.80274 39.0991C5.10147 38.5827 5.5931 38.206 6.1695 38.052L13.5 36.09V33.75ZM44.487 58.041L44.037 57.915C45.2385 56.745 46.278 55.4175 47.115 53.9595C49.2349 54.1641 51.3586 53.6104 53.1087 52.3967C54.8587 51.1831 56.1217 49.3881 56.673 47.331L58.419 40.806C58.573 40.2302 58.4923 39.6167 58.1944 39.1004C57.8966 38.5841 57.4061 38.207 56.8305 38.052L49.5 36.09V33.75C49.497 32.928 49.413 32.133 49.248 31.365L57.9915 33.705C58.8483 33.9342 59.6515 34.3301 60.3552 34.8699C61.0589 35.4097 61.6494 36.0829 62.0928 36.8511C62.5362 37.6192 62.8239 38.4672 62.9394 39.3465C63.0549 40.2259 62.996 41.1194 62.766 41.976L61.02 48.4965C60.092 51.9536 57.8291 54.9006 54.7287 56.6896C51.6284 58.4786 47.9445 58.9676 44.487 58.041ZM4.5 18C4.5 16.8065 4.97411 15.6619 5.81802 14.818C6.66193 13.9741 7.80653 13.5 9 13.5C10.1935 13.5 11.3381 13.9741 12.182 14.818C13.0259 15.6619 13.5 16.8065 13.5 18C13.5 19.1935 13.0259 20.3381 12.182 21.182C11.3381 22.0259 10.1935 22.5 9 22.5C7.80653 22.5 6.66193 22.0259 5.81802 21.182C4.97411 20.3381 4.5 19.1935 4.5 18ZM9 9C6.61305 9 4.32387 9.94821 2.63604 11.636C0.948212 13.3239 0 15.6131 0 18C0 20.3869 0.948212 22.6761 2.63604 24.364C4.32387 26.0518 6.61305 27 9 27C11.3869 27 13.6761 26.0518 15.364 24.364C17.0518 22.6761 18 20.3869 18 18C18 15.6131 17.0518 13.3239 15.364 11.636C13.6761 9.94821 11.3869 9 9 9ZM54 13.5C52.8065 13.5 51.6619 13.9741 50.818 14.818C49.9741 15.6619 49.5 16.8065 49.5 18C49.5 19.1935 49.9741 20.3381 50.818 21.182C51.6619 22.0259 52.8065 22.5 54 22.5C55.1935 22.5 56.3381 22.0259 57.182 21.182C58.0259 20.3381 58.5 19.1935 58.5 18C58.5 16.8065 58.0259 15.6619 57.182 14.818C56.3381 13.9741 55.1935 13.5 54 13.5ZM45 18C45 15.6131 45.9482 13.3239 47.636 11.636C49.3239 9.94821 51.6131 9 54 9C56.3869 9 58.6761 9.94821 60.364 11.636C62.0518 13.3239 63 15.6131 63 18C63 20.3869 62.0518 22.6761 60.364 24.364C58.6761 26.0518 56.3869 27 54 27C51.6131 27 49.3239 26.0518 47.636 24.364C45.9482 22.6761 45 20.3869 45 18ZM24.75 27C22.9598 27 21.2429 27.7112 19.977 28.977C18.7112 30.2429 18 31.9598 18 33.75V45C18 48.5804 19.4223 52.0142 21.9541 54.5459C24.4858 57.0777 27.9196 58.5 31.5 58.5C35.0804 58.5 38.5142 57.0777 41.0459 54.5459C43.5777 52.0142 45 48.5804 45 45V33.75C45 31.9598 44.2888 30.2429 43.023 28.977C41.7571 27.7112 40.0402 27 38.25 27H24.75ZM22.5 33.75C22.5 33.1533 22.7371 32.581 23.159 32.159C23.581 31.7371 24.1533 31.5 24.75 31.5H38.25C38.8467 31.5 39.419 31.7371 39.841 32.159C40.2629 32.581 40.5 33.1533 40.5 33.75V45C40.5 47.3869 39.5518 49.6761 37.864 51.364C36.1761 53.0518 33.8869 54 31.5 54C29.1131 54 26.8239 53.0518 25.136 51.364C23.4482 49.6761 22.5 47.3869 22.5 45V33.75Z" fill="#F0E29F"/>
</svg>
