<svg width="96" height="96" viewBox="0 0 96 96" fill="none" xmlns="http://www.w3.org/2000/svg">
<rect width="96" height="96" rx="48" fill="#0C2C34"/>
<path d="M38.6019 17.2208C32.9319 17.1908 27.4119 22.6508 29.9319 29.4308H20.4219C18.8306 29.4308 17.3045 30.063 16.1792 31.1882C15.054 32.3134 14.4219 33.8395 14.4219 35.4308V41.4308C14.4219 42.2265 14.7379 42.9895 15.3006 43.5521C15.8632 44.1148 16.6262 44.4308 17.4219 44.4308H44.4219V35.4308H50.4219V44.4308H77.4219C78.2175 44.4308 78.9806 44.1148 79.5432 43.5521C80.1058 42.9895 80.4219 42.2265 80.4219 41.4308V35.4308C80.4219 33.8395 79.7897 32.3134 78.6645 31.1882C77.5393 30.063 76.0132 29.4308 74.4219 29.4308H64.9119C68.4219 19.6208 55.2219 12.6908 49.1319 21.1508L47.4219 23.4308L45.7119 21.0908C43.8219 18.4208 41.2119 17.2508 38.6019 17.2208ZM38.4219 23.4308C41.0919 23.4308 42.4419 26.6708 40.5519 28.5608C38.6619 30.4508 35.4219 29.1008 35.4219 26.4308C35.4219 25.6352 35.7379 24.8721 36.3006 24.3095C36.8632 23.7469 37.6262 23.4308 38.4219 23.4308ZM56.4219 23.4308C59.0919 23.4308 60.4419 26.6708 58.5519 28.5608C56.6619 30.4508 53.4219 29.1008 53.4219 26.4308C53.4219 25.6352 53.7379 24.8721 54.3006 24.3095C54.8632 23.7469 55.6262 23.4308 56.4219 23.4308ZM17.4219 47.4308V71.4308C17.4219 73.0221 18.054 74.5482 19.1792 75.6735C20.3045 76.7987 21.8306 77.4308 23.4219 77.4308H71.4219C73.0132 77.4308 74.5393 76.7987 75.6645 75.6735C76.7897 74.5482 77.4219 73.0221 77.4219 71.4308V47.4308H50.4219V71.4308H44.4219V47.4308H17.4219Z" fill="white"/>
</svg>
