<svg width="48" height="48" viewBox="0 0 48 48" fill="none" xmlns="http://www.w3.org/2000/svg">
<path d="M30.9188 22.0958L36.8091 14.3417L40.8272 17.3942L34.9369 25.152L30.9188 22.0958ZM29.7132 21.2023L35.9766 12.9523L31.7579 9.75078L25.4944 18.0008L29.7132 21.2023ZM27.1369 12.0355L25.3275 15.7452L30.6713 8.71391L26.686 5.68578L23.2885 10.1586L27.1369 12.0355ZM25.1925 5.16922L20.82 1.84766L16.8825 7.03297L21.9141 9.48641L25.1925 5.16922ZM35.2238 27.2492L22.1925 17.6202L21.2625 17.7055L21.69 17.893L27.5175 30.8708L25.9688 31.0817L20.5613 19.0348L16.8113 17.3755L16.4363 14.4842L20.131 16.3048L23.5397 15.9927L25.1335 12.7273L14.7366 7.65641L7.17285 18.2042L16.65 32.5002L14.5219 46.152H31.9688V34.933L35.2772 30.3458L36.2813 25.8533L35.2238 27.2492Z" fill="#F0E29F"/>
</svg>
