<svg width="45" height="45" viewBox="0 0 45 45" fill="none" xmlns="http://www.w3.org/2000/svg">
<path d="M28.9864 20.715L34.5086 13.4456L38.2756 16.3073L32.7534 23.5803L28.9864 20.715ZM27.8562 19.8774L33.7281 12.1431L29.773 9.1416L23.9011 16.876L27.8562 19.8774ZM25.4409 11.2835L23.7446 14.7613L28.7544 8.16953L25.0182 5.33066L21.833 9.52393L25.4409 11.2835ZM23.6181 4.84639L19.5188 1.73242L15.8274 6.59365L20.5445 8.89375L23.6181 4.84639ZM33.0224 25.5464L20.8056 16.5191L19.9337 16.5991L20.3345 16.7749L25.7978 28.9416L24.3458 29.1394L19.2763 17.8454L15.7606 16.2897L15.4091 13.5792L18.8729 15.286L22.0686 14.9934L23.5627 11.9321L13.8156 7.17812L6.72461 17.0667L15.6095 30.4691L13.6144 43.2678H29.9708V32.7499L33.0725 28.4494L34.0138 24.2377L33.0224 25.5464Z" fill="#0C2C34"/>
</svg>
