<svg width="45" height="45" viewBox="0 0 45 45" fill="none" xmlns="http://www.w3.org/2000/svg">
<path d="M22.5 3.75C20.4136 3.74913 18.3761 4.38111 16.6564 5.56249C14.9367 6.74387 13.6158 8.41908 12.8681 10.3669C12.0903 10.1428 11.3019 9.95753 10.5056 9.81188C8.86805 9.51528 7.2067 9.36967 5.5425 9.37688L5.22 9.38438L5.13 9.38813C4.77852 9.40216 4.44465 9.54571 4.19265 9.79113C3.94065 10.0366 3.78832 10.3665 3.765 10.7175L3.76312 10.755L3.75938 10.8469C3.75563 10.9219 3.75312 11.0288 3.75187 11.1675C3.74812 11.4413 3.75 11.8331 3.76688 12.315C3.80438 13.2788 3.91125 14.6175 4.18688 16.1306C4.43813 17.5088 4.83938 19.065 5.48063 20.625H5.15625C4.78329 20.625 4.4256 20.7732 4.16188 21.0369C3.89816 21.3006 3.75 21.6583 3.75 22.0313V22.5C3.75 32.8556 12.1444 41.25 22.5 41.25C32.8556 41.25 41.25 32.8556 41.25 22.5V22.0313C41.25 21.6583 41.1018 21.3006 40.8381 21.0369C40.5744 20.7732 40.2167 20.625 39.8438 20.625H39.3694L39.3731 20.3906C39.3721 18.361 38.6962 16.3892 37.4518 14.7858C36.2074 13.1823 34.4652 12.0381 32.4994 11.5331C31.9364 9.30774 30.6469 7.33383 28.8354 5.92403C27.0238 4.51424 24.7936 3.74917 22.4981 3.75M15.5119 11.325C16.0608 9.92452 17.0181 8.72141 18.2595 7.87187C19.5009 7.02232 20.9689 6.56558 22.4732 6.56093C23.9774 6.55628 25.4483 7.00394 26.6948 7.84579C27.9414 8.68765 28.9061 9.88482 29.4638 11.2819C27.8515 11.4178 26.3041 11.9787 24.9793 12.9076C23.6546 13.8365 22.5998 15.1 21.9225 16.5694C21.4169 15.8202 20.8412 15.1208 20.2031 14.4806C18.7988 13.0763 17.1656 12.0619 15.5119 11.325ZM36.5625 20.3906C36.5625 20.4694 36.5606 20.5475 36.5569 20.625H23.94L23.9063 20.5313V20.3906C23.9063 18.7123 24.573 17.1027 25.7597 15.916C26.9465 14.7292 28.5561 14.0625 30.2344 14.0625C31.9127 14.0625 33.5223 14.7292 34.709 15.916C35.8958 17.1027 36.5625 18.7123 36.5625 20.3906ZM18.2156 16.47C19.4213 17.6738 20.295 19.1231 20.925 20.625H16.9875L13.65 17.2875C13.5213 17.1493 13.366 17.0385 13.1935 16.9617C13.021 16.8848 12.8348 16.8435 12.646 16.8401C12.4572 16.8368 12.2696 16.8715 12.0945 16.9423C11.9194 17.013 11.7603 17.1183 11.6268 17.2518C11.4933 17.3853 11.388 17.5444 11.3173 17.7195C11.2465 17.8946 11.2118 18.0822 11.2151 18.271C11.2185 18.4598 11.2598 18.646 11.3367 18.8185C11.4135 18.991 11.5243 19.1463 11.6625 19.275L13.0125 20.625H8.56875C7.74375 18.9825 7.24875 17.2256 6.95625 15.6244C6.75103 14.4959 6.62572 13.3543 6.58125 12.2081V12.2044C7.44375 12.2363 8.6475 12.3319 9.99938 12.5794C12.7369 13.08 15.9225 14.1731 18.2156 16.47ZM8.9775 30.9375H36.0225C34.5903 33.2325 32.5975 35.1252 30.2318 36.4374C27.866 37.7495 25.2052 38.4378 22.5 38.4375C19.7948 38.4378 17.134 37.7495 14.7682 36.4374C12.4025 35.1252 10.4097 33.2325 8.9775 30.9375ZM6.58875 23.4375H38.4113C38.3181 25.0412 37.9831 26.6215 37.4175 28.125H7.5825C7.01692 26.6215 6.68188 25.0412 6.58875 23.4375Z" fill="#0C2C34"/>
</svg>
