<svg width="48" height="48" viewBox="0 0 48 48" fill="none" xmlns="http://www.w3.org/2000/svg">
<g clip-path="url(#clip0_1_3495)">
<path d="M15.075 9.04639C16.3875 10.6401 17.9813 11.9433 19.7156 13.0026C22.1438 14.4839 24.75 15.4308 27 15.9651V13.012C24.9188 10.1714 23.4375 6.70264 23.3063 2.62452C23.2688 1.56514 22.6031 0.60889 21.5813 0.337015C20.8688 0.149515 20.1 0.318265 19.6125 0.880765C18.3656 2.32452 16.5469 5.06202 15.075 9.05577V9.04639ZM30 13.4995V19.4995C24.3 19.0214 12.6563 15.3933 9.44065 4.76202C9.13127 3.74952 8.24065 2.99952 7.18127 2.99952C6.44065 2.99952 5.7469 3.36514 5.41877 4.03077C4.38752 6.17764 3.00003 10.5089 3.00003 16.4995C3.00003 27.4589 10.5094 33.4214 14.1 35.512L1.10628 39.0558C0.62815 39.187 0.243775 39.5433 0.0844002 40.012C-0.0749748 40.4808 0.00940023 41.0058 0.300025 41.3995C2.0344 43.7058 7.2469 47.9995 15 47.9995C15.3375 47.9995 15.675 47.887 15.9375 47.6714L23.025 41.9995H30C38.2875 41.9995 45 35.287 45 26.9995V11.9995L47.8031 7.79014C47.925 7.60264 48 7.37764 48 7.15264C48 6.51514 47.4844 5.99952 46.8469 5.99952H37.5C33.3563 5.99952 30 9.35577 30 13.4995ZM37.5 11.9995C37.8978 11.9995 38.2794 12.1576 38.5607 12.4389C38.842 12.7202 39 13.1017 39 13.4995C39 13.8973 38.842 14.2789 38.5607 14.5602C38.2794 14.8415 37.8978 14.9995 37.5 14.9995C37.1022 14.9995 36.7207 14.8415 36.4394 14.5602C36.1581 14.2789 36 13.8973 36 13.4995C36 13.1017 36.1581 12.7202 36.4394 12.4389C36.7207 12.1576 37.1022 11.9995 37.5 11.9995Z" fill="#F0E29F"/>
</g>
<defs>
<clipPath id="clip0_1_3495">
<rect width="48" height="48" fill="white"/>
</clipPath>
</defs>
</svg>
