<svg width="23" height="23" viewBox="0 0 23 23" fill="none" xmlns="http://www.w3.org/2000/svg">
<g clip-path="url(#clip0_1_2727)">
<path d="M4.73418 15.3908C4.14171 15.3879 3.55702 15.5259 3.02835 15.7933L0.134184 17.25C0.0938787 17.2685 0.0597716 17.2982 0.0359684 17.3356C0.0121652 17.373 -0.000319551 17.4165 1.71455e-05 17.4608V22.6358C-0.00050566 22.6778 0.0109375 22.719 0.0330041 22.7546C0.0550706 22.7902 0.0868454 22.8189 0.1246 22.8371C0.160283 22.8602 0.201884 22.8725 0.244392 22.8725C0.2869 22.8725 0.328502 22.8602 0.364184 22.8371L3.64168 20.7767C3.70066 20.7385 3.7676 20.7143 3.83737 20.706C3.90714 20.6977 3.97789 20.7055 4.04418 20.7287C13.8767 24.0254 10.5417 24.0829 21.3996 18.5917C21.4734 18.5543 21.5365 18.4989 21.5831 18.4305C21.6296 18.3622 21.6581 18.2831 21.6657 18.2008C21.6734 18.1184 21.66 18.0355 21.6269 17.9597C21.5937 17.8839 21.5419 17.8178 21.4763 17.7675C21.1659 17.4942 20.7889 17.3078 20.3833 17.227C19.9778 17.1462 19.5581 17.174 19.1667 17.3075L15.8892 18.3904C15.8289 18.4091 15.7731 18.4401 15.7253 18.4813C15.6775 18.5225 15.6387 18.5731 15.6113 18.63C15.4539 18.9511 15.2099 19.2218 14.9067 19.4115C14.6036 19.6012 14.2534 19.7023 13.8959 19.7033H10.0625C9.93544 19.7033 9.81356 19.6528 9.7237 19.563C9.63383 19.4731 9.58335 19.3512 9.58335 19.2242C9.58335 19.0971 9.63383 18.9752 9.7237 18.8853C9.81356 18.7955 9.93544 18.745 10.0625 18.745H13.8959C14.15 18.745 14.3938 18.644 14.5735 18.4643C14.7532 18.2846 14.8542 18.0408 14.8542 17.7867C14.8542 17.5325 14.7532 17.2887 14.5735 17.109C14.3938 16.9293 14.15 16.8283 13.8959 16.8283H10.7046C10.6014 16.8258 10.5012 16.7924 10.4171 16.7325C9.34611 15.9184 8.0523 15.4504 6.70835 15.3908H4.73418ZM16.7709 0C15.5388 0 14.3345 0.365334 13.3101 1.0498C12.2857 1.73427 11.4873 2.70714 11.0159 3.84537C10.5444 4.9836 10.421 6.23608 10.6614 7.44442C10.9017 8.65276 11.495 9.76269 12.3662 10.6339C13.2373 11.505 14.3473 12.0983 15.5556 12.3386C16.7639 12.579 18.0164 12.4556 19.1546 11.9842C20.2929 11.5127 21.2657 10.7143 21.9502 9.68991C22.6347 8.66552 23 7.46118 23 6.22917C22.9975 4.57787 22.3404 2.99493 21.1727 1.82728C20.0051 0.659634 18.4221 0.00253462 16.7709 0ZM17.4896 9.81333V10.3021C17.4896 10.4927 17.4139 10.6755 17.2791 10.8103C17.1443 10.9451 16.9615 11.0208 16.7709 11.0208C16.5802 11.0208 16.3974 10.9451 16.2626 10.8103C16.1278 10.6755 16.0521 10.4927 16.0521 10.3021V9.82292H15.3334C15.1427 9.82292 14.9599 9.74719 14.8251 9.6124C14.6903 9.47761 14.6146 9.29479 14.6146 9.10417C14.6146 8.91354 14.6903 8.73073 14.8251 8.59593C14.9599 8.46114 15.1427 8.38542 15.3334 8.38542H17.25C17.3825 8.38689 17.5112 8.34182 17.6138 8.25807C17.7164 8.17433 17.7864 8.05722 17.8115 7.92717C17.8366 7.79713 17.8152 7.6624 17.7511 7.54649C17.6871 7.43057 17.5843 7.34083 17.4608 7.29292L15.4867 6.4975C15.0801 6.3258 14.7416 6.02461 14.5238 5.64072C14.306 5.25683 14.2211 4.81175 14.2823 4.37465C14.3435 3.93754 14.5473 3.53289 14.8622 3.22358C15.177 2.91426 15.5852 2.7176 16.0233 2.66417V2.15625C16.0233 1.96563 16.0991 1.78281 16.2339 1.64802C16.3687 1.51323 16.5515 1.4375 16.7421 1.4375C16.9327 1.4375 17.1155 1.51323 17.2503 1.64802C17.3851 1.78281 17.4608 1.96563 17.4608 2.15625V2.63542H18.2084C18.399 2.63542 18.5818 2.71114 18.7166 2.84593C18.8514 2.98073 18.9271 3.16354 18.9271 3.35417C18.9271 3.54479 18.8514 3.72761 18.7166 3.8624C18.5818 3.99719 18.399 4.07292 18.2084 4.07292H16.2917C16.1417 4.07292 15.9979 4.13249 15.8919 4.23852C15.7858 4.34456 15.7263 4.48838 15.7263 4.63833C15.7244 4.75189 15.7574 4.86329 15.8208 4.95752C15.8842 5.05176 15.975 5.12431 16.0809 5.16542L18.055 5.96083C18.4616 6.13253 18.8001 6.43373 19.0179 6.81761C19.2357 7.2015 19.3206 7.64658 19.2594 8.08368C19.1982 8.52079 18.9944 8.92544 18.6795 9.23476C18.3647 9.54407 17.9565 9.74073 17.5184 9.79417L17.4896 9.81333Z" fill="black"/>
</g>
<defs>
<clipPath id="clip0_1_2727">
<rect width="23" height="23" fill="white"/>
</clipPath>
</defs>
</svg>
