<svg width="48" height="48" viewBox="0 0 48 48" fill="none" xmlns="http://www.w3.org/2000/svg">
<path d="M23.2533 1.52555C22.3232 1.44905 21.4773 1.53155 20.5983 1.94855C20.1931 2.12264 19.8168 2.35733 19.4823 2.64455L19.0457 2.97455L19.0262 3.06755L17.5592 4.61705L9.04525 13.4865L9.04225 13.4895C8.84496 13.6957 8.67184 13.9237 8.52625 14.169L8.30575 14.4L5.78575 20.049L5.42125 20.8665L2.96125 25.416C2.93469 25.4627 2.91065 25.5108 2.88925 25.56C2.58925 26.127 2.39725 26.721 2.28925 27.33L2.28475 27.3585L1.46875 33.2985L2.25175 35.6505C2.86472 37.5021 3.90415 39.1853 5.28625 40.5615L6.68125 41.9565C7.63177 42.9146 8.73349 43.7098 9.94225 44.31L11.9852 45.324L11.9897 45.327C13.7382 46.207 15.6694 46.6623 17.6268 46.656H17.6297L22.5002 46.644V46.656H35.5892C36.9242 46.6335 38.4662 45.954 39.3722 44.9205C39.6915 44.6296 39.9814 44.3081 40.2378 43.9605L40.3532 43.8045L45.3302 38.1375C45.8089 37.5929 46.1581 36.947 46.3513 36.2481C46.5446 35.5493 46.5771 34.8157 46.4463 34.1025L46.2708 33.162C46.2521 32.8797 46.2135 32.599 46.1553 32.322V32.3145L45.5298 29.142L45.5387 29.13L44.1468 22.128C43.8447 20.5582 42.9768 19.1523 41.7077 18.18L36.2627 13.3395L32.7977 6.93005L32.7708 6.88805C32.1392 5.88005 31.5708 5.05205 30.7998 4.40555C30.0108 3.74255 29.1122 3.35105 27.9797 2.98055L26.1092 2.32055L25.3442 2.05205L25.3337 2.04905L25.1987 1.99655C25.0487 1.94051 24.8971 1.88849 24.7443 1.84055C24.2693 1.68828 23.7804 1.58376 23.2847 1.52855L23.2697 1.52705L23.2533 1.52555ZM35.5503 43.656H25.5002V38.8905L39.2927 36.714L43.3428 33.8205L43.4943 34.6395V34.6425C43.5933 35.1915 43.4432 35.742 43.0802 36.153L38.0163 41.919L37.8242 42.1785L37.8213 42.1815C37.6702 42.3875 37.5003 42.5735 37.3112 42.7395L37.2407 42.8025L37.1237 42.936L37.1193 42.939C36.7983 43.3095 36.0723 43.644 35.5503 43.656ZM17.2653 30.921L24.0002 37.656L7.50025 33.156L8.68525 28.461C8.88025 27.621 9.40525 26.916 10.1403 26.466L16.5002 22.656V29.076C16.5002 29.766 16.7703 30.426 17.2653 30.921ZM16.5002 22.656L12.5928 14.121L19.7283 6.69155L19.8302 6.58355L16.5002 22.656ZM27.2703 30.816C26.2803 30.366 25.7702 29.241 26.0852 28.191L29.3402 17.349L41.0583 22.173C41.1182 22.344 41.1663 22.5205 41.2023 22.7025V22.7055L42.3317 28.3905L42.3257 28.3995L43.0682 32.172L38.7077 35.286L37.5198 35.475L27.2703 30.816ZM29.7752 15.906L30.0002 15.156L31.0382 9.98405L33.8763 15.231L38.8263 19.632L29.7752 15.906ZM5.08075 34.656H7.30075L22.5002 38.8005V43.644L17.6252 43.656H17.6222C16.1342 43.6617 14.6658 43.3158 13.3368 42.6465L11.2727 41.622L11.2682 41.6205C10.3533 41.1652 9.51958 40.5621 8.80075 39.8355L7.40575 38.4405C6.35712 37.3936 5.56763 36.1162 5.10025 34.71L5.08075 34.656ZM24.2703 4.85555L25.1178 5.15255C25.6083 5.32355 26.2773 5.56055 26.9958 5.81405L27.0138 5.82005L27.0317 5.82605C28.0487 6.15905 28.5182 6.40505 28.8722 6.70205C29.1797 6.96005 29.4722 7.31705 29.9118 7.98455L28.5452 14.79L24.6497 27.7575C24.3922 28.612 24.453 29.5308 24.8209 30.3438C25.1888 31.1569 25.8389 31.809 26.6507 32.1795L32.9958 35.0625L24.5462 36.078L18.3273 29.859C18.2235 29.7566 18.1412 29.6344 18.0853 29.4996C18.0294 29.3649 18.001 29.2204 18.0018 29.0745V22.8075L21.7472 4.72955C21.8958 4.64705 22.0173 4.59755 22.1268 4.56455C22.3218 4.50755 22.5707 4.47905 22.9923 4.51205C23.2878 4.54505 23.5967 4.62305 23.8503 4.70105C23.9731 4.74012 24.0947 4.78314 24.2147 4.83005L24.2283 4.83605L24.2703 4.85555ZM5.61025 26.835L5.63575 26.7885V26.7855L8.11075 22.209L10.7612 16.26C10.8072 16.1466 10.8727 16.042 10.9548 15.951L11.5052 15.3495L14.5773 22.059L9.36925 25.179L9.35725 25.1865C8.82647 25.5076 8.36483 25.9311 7.99916 26.4322C7.6335 26.9333 7.37111 27.5021 7.22725 28.1055L6.33175 31.656H4.72075L5.24575 27.825C5.30459 27.4971 5.41764 27.1813 5.58025 26.8905L5.58775 26.877L5.61025 26.835Z" fill="#F0E29F"/>
</svg>
