<svg width="88" height="88" viewBox="0 0 88 88" fill="none" xmlns="http://www.w3.org/2000/svg">
<path d="M11 77.844V74.1773H77V77.844H11ZM18.3333 69.6673V52.4633C16.2238 48.2686 14.63 44.2292 13.552 40.345C12.4764 36.4583 11.9387 32.7794 11.9387 29.3083C11.9387 26.4239 12.3053 23.4258 13.0387 20.314C13.7769 17.2022 14.905 13.5991 16.423 9.50465C16.6283 8.87887 16.9754 8.36065 17.4643 7.94998C17.9532 7.53932 18.5411 7.33398 19.228 7.33398C20.042 7.33398 20.7216 7.6591 21.2667 8.30932C21.8118 8.9571 22.0318 9.69654 21.9267 10.5277L20.9917 18.0957C20.625 21.3101 21.0137 24.4659 22.1577 27.563C23.3017 30.6601 24.9602 33.426 27.1333 35.8606C29.3064 38.2953 31.8572 40.2606 34.7857 41.7566C37.7141 43.2526 40.7856 44.0006 44 44.0006C47.8084 44.0006 51.2673 44.2646 54.3767 44.7926C57.486 45.3231 60.1333 46.1029 62.3187 47.132C64.6458 48.2564 66.4522 49.7035 67.738 51.4733C69.0238 53.2431 69.6667 55.4578 69.6667 58.1173V69.6673H34.9763V68.1786C34.9763 65.7709 35.8197 63.7249 37.5063 62.0406C39.193 60.354 41.2634 59.5106 43.7177 59.5106H56.1293V55.844H43.7177C40.2808 55.844 37.3536 57.0418 34.936 59.4373C32.516 61.828 31.306 64.7418 31.306 68.1786V69.6673H18.3333ZM44 38.6436C40.9542 38.6436 38.3594 37.5718 36.2157 35.428C34.0719 33.2818 33 30.687 33 27.6437C33 24.5954 34.0719 21.9994 36.2157 19.8556C38.3594 17.7143 40.9542 16.6437 44 16.6437C47.0458 16.6437 49.6406 17.7143 51.7843 19.8556C53.9281 21.997 55 24.5942 55 27.6473C55 30.7004 53.9281 33.2952 51.7843 35.4317C49.6406 37.573 47.0458 38.6436 44 38.6436Z" fill="white"/>
</svg>
