<svg width="32" height="32" viewBox="0 0 32 32" fill="none" xmlns="http://www.w3.org/2000/svg">
<path d="M22.1729 18.5219L22.7809 17.9179L21.3689 16.4993L20.7635 17.1033L22.1729 18.5219ZM24.8195 17.6646L27.3675 19.0499L28.3209 17.2926L25.7742 15.9086L24.8195 17.6646ZM27.8569 21.8019L25.9636 23.6859L27.3729 25.1033L29.2662 23.2206L27.8569 21.8019ZM24.8089 24.2913C22.8756 24.4726 17.8755 24.3113 12.4595 18.9273L11.0489 20.3446C16.9582 26.2206 22.5835 26.5086 24.9956 26.2833L24.8089 24.2913ZM12.4595 18.9273C7.29822 13.7939 6.44222 9.47793 6.33555 7.6046L4.33822 7.71793C4.47155 10.0753 5.53155 14.8593 11.0489 20.3446L12.4595 18.9273ZM14.2929 10.6873L14.6755 10.3059L13.2675 8.8886L12.8849 9.2686L14.2929 10.6873ZM14.9795 5.45926L13.2995 3.21393L11.6982 4.41393L13.3782 6.65793L14.9795 5.45926ZM7.64488 2.7246L5.55155 4.8046L6.96222 6.22326L9.05422 4.14326L7.64488 2.7246ZM13.5889 9.97793C12.8822 9.2686 12.8822 9.2686 12.8822 9.27126H12.8795L12.8755 9.2766C12.8122 9.34048 12.7555 9.41062 12.7062 9.48593C12.6342 9.5926 12.5555 9.7326 12.4889 9.90993C12.3266 10.3677 12.2861 10.8598 12.3715 11.3379C12.5502 12.4913 13.3449 14.0153 15.3795 16.0393L16.7902 14.6206C14.8849 12.7273 14.4316 11.5753 14.3475 11.0313C14.3075 10.7726 14.3489 10.6446 14.3609 10.6153C14.3689 10.5975 14.3689 10.5948 14.3609 10.6073C14.349 10.6257 14.3356 10.6431 14.3209 10.6593L14.3075 10.6726L14.2942 10.6846L13.5889 9.97793ZM15.3795 16.0393C17.4156 18.0633 18.9475 18.8526 20.1022 19.0286C20.6929 19.1193 21.1689 19.0473 21.5302 18.9126C21.7326 18.8386 21.9217 18.7323 22.0902 18.5979L22.1569 18.5379L22.1662 18.5299L22.1702 18.5259L22.1716 18.5233C22.1716 18.5233 22.1729 18.5219 21.4676 17.8126C20.7609 17.1033 20.7649 17.1019 20.7649 17.1019L20.7675 17.0993L20.7702 17.0966L20.7782 17.0899L20.7915 17.0766L20.8422 17.0366C20.8547 17.0286 20.8515 17.0295 20.8329 17.0393C20.7995 17.0513 20.6689 17.0926 20.4062 17.0526C19.8542 16.9673 18.6942 16.5139 16.7902 14.6206L15.3795 16.0393ZM13.2995 3.2126C11.9395 1.39926 9.26755 1.11126 7.64488 2.7246L9.05422 4.14326C9.76355 3.43793 11.0222 3.51126 11.6982 4.41393L13.2995 3.2126ZM6.33688 7.60593C6.31022 7.1446 6.52222 6.66193 6.96222 6.2246L5.55022 4.80593C4.83422 5.51793 4.27022 6.52593 4.33822 7.71793L6.33688 7.60593ZM25.9636 23.6859C25.5982 24.0513 25.2036 24.2566 24.8102 24.2926L24.9956 26.2833C25.9755 26.1913 26.7769 25.6979 27.3742 25.1046L25.9636 23.6859ZM14.6755 10.3059C15.9889 9.0006 16.0862 6.93793 14.9809 5.4606L13.3795 6.65926C13.9169 7.37793 13.8369 8.3206 13.2662 8.88993L14.6755 10.3059ZM27.3689 19.0513C28.4582 19.6433 28.6276 21.0379 27.8582 21.8033L29.2689 23.2206C31.0555 21.4433 30.5049 18.4793 28.3222 17.2939L27.3689 19.0513ZM22.7809 17.9193C23.2929 17.4099 24.1169 17.2846 24.8209 17.6659L25.7755 15.9099C24.3302 15.1233 22.5382 15.3406 21.3702 16.5006L22.7809 17.9193Z" fill="white"/>
</svg>
