<svg width="216" height="24" viewBox="0 0 216 24" fill="none" xmlns="http://www.w3.org/2000/svg">
<path d="M10.95 14.8572L15.908 9.89917L15.194 9.18617L10.95 13.4302L8.812 11.2912L8.098 12.0052L10.95 14.8572ZM12 20.9592C9.99133 20.3632 8.32233 19.1465 6.993 17.3092C5.66367 15.4718 4.99933 13.4018 5 11.0992V5.69117L12 3.07617L19 5.69117V11.0992C19 13.4018 18.3357 15.4718 17.007 17.3092C15.6783 19.1465 14.0093 20.3642 12 20.9622M12 19.9002C13.7333 19.3502 15.1667 18.2502 16.3 16.6002C17.4333 14.9502 18 13.1168 18 11.1002V6.37417L12 4.14417L6 6.37417V11.0992C6 13.1158 6.56667 14.9492 7.7 16.5992C8.83333 18.2492 10.2667 19.3502 12 19.9002Z" fill="#5F561C"/>
<path d="M39.028 9.146C38.916 9.01533 38.7667 8.88933 38.58 8.768C38.3933 8.64667 38.1833 8.53933 37.95 8.446C37.7167 8.34333 37.46 8.264 37.18 8.208C36.9093 8.14267 36.6247 8.11 36.326 8.11C35.5607 8.11 34.996 8.25467 34.632 8.544C34.268 8.83333 34.086 9.23 34.086 9.734C34.086 10.0887 34.1793 10.3687 34.366 10.574C34.5527 10.7793 34.8373 10.9473 35.22 11.078C35.612 11.2087 36.1067 11.344 36.704 11.484C37.3947 11.6333 37.992 11.8153 38.496 12.03C39 12.2447 39.3873 12.534 39.658 12.898C39.9287 13.2527 40.064 13.7287 40.064 14.326C40.064 14.802 39.9707 15.2173 39.784 15.572C39.6067 15.9173 39.3547 16.2067 39.028 16.44C38.7013 16.664 38.3187 16.832 37.88 16.944C37.4413 17.0467 36.9653 17.098 36.452 17.098C35.948 17.098 35.4533 17.0467 34.968 16.944C34.492 16.832 34.0393 16.6733 33.61 16.468C33.1807 16.2627 32.7793 16.006 32.406 15.698L33.008 14.634C33.1573 14.7927 33.3487 14.9513 33.582 15.11C33.8247 15.2593 34.0953 15.3993 34.394 15.53C34.702 15.6607 35.0333 15.768 35.388 15.852C35.7427 15.9267 36.1067 15.964 36.48 15.964C37.1893 15.964 37.74 15.838 38.132 15.586C38.524 15.3247 38.72 14.9467 38.72 14.452C38.72 14.0787 38.608 13.78 38.384 13.556C38.1693 13.332 37.8473 13.1453 37.418 12.996C36.9887 12.8467 36.466 12.6973 35.85 12.548C35.178 12.38 34.6133 12.198 34.156 12.002C33.6987 11.7967 33.3533 11.5307 33.12 11.204C32.896 10.8773 32.784 10.4527 32.784 9.93C32.784 9.29533 32.938 8.75867 33.246 8.32C33.554 7.88133 33.9787 7.55 34.52 7.326C35.0613 7.102 35.6727 6.99 36.354 6.99C36.802 6.99 37.2173 7.03667 37.6 7.13C37.992 7.22333 38.356 7.354 38.692 7.522C39.028 7.69 39.336 7.89067 39.616 8.124L39.028 9.146ZM44.7593 17.14C44.2086 17.14 43.7046 17.042 43.2473 16.846C42.7993 16.6407 42.4073 16.3653 42.0713 16.02C41.7446 15.6653 41.4879 15.2593 41.3013 14.802C41.1239 14.3447 41.0353 13.8593 41.0353 13.346C41.0353 12.6553 41.1939 12.0253 41.5113 11.456C41.8286 10.8867 42.2673 10.4293 42.8273 10.084C43.3966 9.73867 44.0453 9.566 44.7733 9.566C45.5106 9.566 46.1499 9.74333 46.6913 10.098C47.2419 10.4433 47.6666 10.9007 47.9653 11.47C48.2733 12.03 48.4273 12.6367 48.4273 13.29C48.4273 13.3833 48.4226 13.4767 48.4133 13.57C48.4133 13.654 48.4086 13.7193 48.3993 13.766H42.3373C42.3746 14.242 42.5053 14.6667 42.7293 15.04C42.9626 15.404 43.2613 15.6933 43.6253 15.908C43.9893 16.1133 44.3813 16.216 44.8013 16.216C45.2493 16.216 45.6693 16.104 46.0613 15.88C46.4626 15.656 46.7379 15.362 46.8873 14.998L47.9513 15.292C47.7926 15.6467 47.5546 15.964 47.2373 16.244C46.9293 16.524 46.5606 16.7433 46.1313 16.902C45.7113 17.0607 45.2539 17.14 44.7593 17.14ZM42.2953 12.912H47.2793C47.2419 12.436 47.1066 12.016 46.8733 11.652C46.6399 11.288 46.3413 11.0033 45.9773 10.798C45.6133 10.5927 45.2119 10.49 44.7733 10.49C44.3439 10.49 43.9473 10.5927 43.5833 10.798C43.2193 11.0033 42.9206 11.288 42.6873 11.652C42.4633 12.016 42.3326 12.436 42.2953 12.912ZM53.0307 17.14C52.4801 17.14 51.9761 17.042 51.5187 16.846C51.0707 16.6407 50.6787 16.3607 50.3427 16.006C50.0161 15.6513 49.7594 15.2453 49.5727 14.788C49.3954 14.3307 49.3067 13.8453 49.3067 13.332C49.3067 12.6413 49.4607 12.0113 49.7687 11.442C50.0767 10.8727 50.5107 10.42 51.0707 10.084C51.6307 9.73867 52.2794 9.566 53.0167 9.566C53.7354 9.566 54.3607 9.72933 54.8927 10.056C55.4341 10.3733 55.8354 10.8027 56.0967 11.344L54.8927 11.722C54.7061 11.3767 54.4447 11.1107 54.1087 10.924C53.7727 10.728 53.3994 10.63 52.9887 10.63C52.5407 10.63 52.1301 10.7467 51.7567 10.98C51.3927 11.2133 51.1034 11.5353 50.8887 11.946C50.6741 12.3473 50.5667 12.8093 50.5667 13.332C50.5667 13.8453 50.6741 14.312 50.8887 14.732C51.1127 15.1427 51.4067 15.4693 51.7707 15.712C52.1441 15.9547 52.5547 16.076 53.0027 16.076C53.2921 16.076 53.5674 16.0247 53.8287 15.922C54.0994 15.8193 54.3327 15.684 54.5287 15.516C54.7341 15.3387 54.8741 15.1473 54.9487 14.942L56.1527 15.306C56.0034 15.6607 55.7747 15.978 55.4667 16.258C55.1681 16.5287 54.8087 16.7433 54.3887 16.902C53.9781 17.0607 53.5254 17.14 53.0307 17.14ZM57.4787 14.074V9.692H58.7107V13.836C58.7107 14.5827 58.8414 15.1427 59.1027 15.516C59.364 15.8893 59.7514 16.076 60.2647 16.076C60.6007 16.076 60.9227 16.006 61.2307 15.866C61.548 15.7167 61.8327 15.5067 62.0847 15.236C62.3367 14.9653 62.5327 14.6433 62.6727 14.27V9.692H63.9047V15.6C63.9047 15.7493 63.9327 15.8613 63.9887 15.936C64.054 16.0013 64.1567 16.0387 64.2967 16.048V17C64.1567 17.0187 64.0447 17.028 63.9607 17.028C63.886 17.0373 63.8114 17.042 63.7367 17.042C63.5034 17.042 63.3027 16.972 63.1347 16.832C62.9667 16.6827 62.878 16.5007 62.8687 16.286L62.8407 15.432C62.5234 15.9733 62.094 16.3933 61.5527 16.692C61.0207 16.9907 60.4374 17.14 59.8027 17.14C59.0374 17.14 58.4587 16.8833 58.0667 16.37C57.6747 15.8473 57.4787 15.082 57.4787 14.074ZM69.8209 10.77C69.2049 10.7793 68.6589 10.938 68.1829 11.246C67.7162 11.5447 67.3849 11.96 67.1889 12.492V17H65.9569V9.692H67.1049V11.386C67.3569 10.882 67.6882 10.476 68.0989 10.168C68.5189 9.85067 68.9576 9.67333 69.4149 9.636C69.5082 9.636 69.5876 9.636 69.6529 9.636C69.7182 9.636 69.7742 9.64067 69.8209 9.65V10.77ZM74.0991 17.14C73.5484 17.14 73.0444 17.042 72.5871 16.846C72.1391 16.6407 71.7471 16.3653 71.4111 16.02C71.0844 15.6653 70.8278 15.2593 70.6411 14.802C70.4638 14.3447 70.3751 13.8593 70.3751 13.346C70.3751 12.6553 70.5338 12.0253 70.8511 11.456C71.1684 10.8867 71.6071 10.4293 72.1671 10.084C72.7364 9.73867 73.3851 9.566 74.1131 9.566C74.8504 9.566 75.4898 9.74333 76.0311 10.098C76.5818 10.4433 77.0064 10.9007 77.3051 11.47C77.6131 12.03 77.7671 12.6367 77.7671 13.29C77.7671 13.3833 77.7624 13.4767 77.7531 13.57C77.7531 13.654 77.7484 13.7193 77.7391 13.766H71.6771C71.7144 14.242 71.8451 14.6667 72.0691 15.04C72.3024 15.404 72.6011 15.6933 72.9651 15.908C73.3291 16.1133 73.7211 16.216 74.1411 16.216C74.5891 16.216 75.0091 16.104 75.4011 15.88C75.8024 15.656 76.0778 15.362 76.2271 14.998L77.2911 15.292C77.1324 15.6467 76.8944 15.964 76.5771 16.244C76.2691 16.524 75.9004 16.7433 75.4711 16.902C75.0511 17.0607 74.5938 17.14 74.0991 17.14ZM71.6351 12.912H76.6191C76.5818 12.436 76.4464 12.016 76.2131 11.652C75.9798 11.288 75.6811 11.0033 75.3171 10.798C74.9531 10.5927 74.5518 10.49 74.1131 10.49C73.6838 10.49 73.2871 10.5927 72.9231 10.798C72.5591 11.0033 72.2604 11.288 72.0271 11.652C71.8031 12.016 71.6724 12.436 71.6351 12.912ZM86.6116 17.14C86.0143 17.14 85.4823 16.9907 85.0156 16.692C84.5489 16.3933 84.1803 16.0153 83.9096 15.558V19.982H82.6776V9.692H83.7696V11.064C84.0589 10.616 84.4369 10.2567 84.9036 9.986C85.3703 9.706 85.8789 9.566 86.4296 9.566C86.9336 9.566 87.3956 9.66867 87.8156 9.874C88.2356 10.0793 88.5996 10.3593 88.9076 10.714C89.2156 11.0687 89.4536 11.4747 89.6216 11.932C89.7989 12.38 89.8876 12.8513 89.8876 13.346C89.8876 14.0367 89.7476 14.6713 89.4676 15.25C89.1969 15.8287 88.8143 16.2907 88.3196 16.636C87.8249 16.972 87.2556 17.14 86.6116 17.14ZM86.2336 16.076C86.5976 16.076 86.9243 16.0013 87.2136 15.852C87.5123 15.6933 87.7643 15.488 87.9696 15.236C88.1843 14.9747 88.3476 14.6807 88.4596 14.354C88.5716 14.0273 88.6276 13.6913 88.6276 13.346C88.6276 12.982 88.5623 12.6367 88.4316 12.31C88.3103 11.9833 88.1329 11.694 87.8996 11.442C87.6756 11.19 87.4096 10.994 87.1016 10.854C86.8029 10.7047 86.4763 10.63 86.1216 10.63C85.8976 10.63 85.6643 10.672 85.4216 10.756C85.1883 10.84 84.9643 10.9613 84.7496 11.12C84.5349 11.2693 84.3529 11.442 84.2036 11.638C84.0543 11.834 83.9563 12.044 83.9096 12.268V14.354C84.0496 14.6713 84.2363 14.9607 84.4696 15.222C84.7029 15.4833 84.9736 15.6933 85.2816 15.852C85.5896 16.0013 85.9069 16.076 86.2336 16.076ZM90.8263 14.886C90.8263 14.4193 90.9569 14.018 91.2183 13.682C91.4889 13.3367 91.8576 13.0707 92.3243 12.884C92.7909 12.6973 93.3323 12.604 93.9483 12.604C94.2749 12.604 94.6203 12.632 94.9843 12.688C95.3483 12.7347 95.6703 12.8093 95.9503 12.912V12.38C95.9503 11.82 95.7823 11.3813 95.4463 11.064C95.1103 10.7373 94.6343 10.574 94.0183 10.574C93.6169 10.574 93.2296 10.6487 92.8563 10.798C92.4923 10.938 92.1049 11.1433 91.6943 11.414L91.2463 10.546C91.7223 10.2193 92.1983 9.97667 92.6743 9.818C93.1503 9.65 93.6449 9.566 94.1583 9.566C95.0916 9.566 95.8289 9.82733 96.3703 10.35C96.9116 10.8633 97.1823 11.582 97.1823 12.506V15.6C97.1823 15.7493 97.2103 15.8613 97.2663 15.936C97.3316 16.0013 97.4343 16.0387 97.5743 16.048V17C97.4529 17.0187 97.3456 17.0327 97.2523 17.042C97.1683 17.0513 97.0983 17.056 97.0423 17.056C96.7529 17.056 96.5336 16.9767 96.3843 16.818C96.2443 16.6593 96.1649 16.4913 96.1463 16.314L96.1183 15.852C95.8009 16.2627 95.3856 16.58 94.8723 16.804C94.3589 17.028 93.8503 17.14 93.3463 17.14C92.8609 17.14 92.4269 17.042 92.0443 16.846C91.6616 16.6407 91.3629 16.37 91.1483 16.034C90.9336 15.6887 90.8263 15.306 90.8263 14.886ZM95.5863 15.404C95.6983 15.2733 95.7869 15.1427 95.8523 15.012C95.9176 14.872 95.9503 14.7553 95.9503 14.662V13.752C95.6609 13.64 95.3576 13.556 95.0403 13.5C94.7229 13.4347 94.4103 13.402 94.1022 13.402C93.4769 13.402 92.9683 13.528 92.5763 13.78C92.1936 14.0227 92.0023 14.3587 92.0023 14.788C92.0023 15.0213 92.0629 15.25 92.1843 15.474C92.3149 15.6887 92.5016 15.866 92.7443 16.006C92.9963 16.146 93.3043 16.216 93.6683 16.216C94.0509 16.216 94.4149 16.1413 94.7603 15.992C95.1056 15.8333 95.3809 15.6373 95.5863 15.404ZM99.2558 18.988C99.3771 18.9973 99.4984 19.0067 99.6198 19.016C99.7411 19.0347 99.8344 19.044 99.8998 19.044C100.049 19.044 100.18 18.9927 100.292 18.89C100.404 18.7873 100.525 18.5867 100.656 18.288C100.796 17.9987 100.973 17.5693 101.188 17L98.0938 9.692H99.3958L101.86 15.754L104.086 9.692H105.304L101.748 18.918C101.664 19.1327 101.538 19.3333 101.37 19.52C101.211 19.716 101.006 19.87 100.754 19.982C100.502 20.094 100.198 20.15 99.8438 20.15C99.7598 20.15 99.6711 20.1453 99.5778 20.136C99.4938 20.1267 99.3864 20.108 99.2558 20.08V18.988ZM117.567 17H116.335V12.912C116.335 12.1467 116.209 11.582 115.957 11.218C115.714 10.854 115.35 10.672 114.865 10.672C114.37 10.672 113.922 10.854 113.521 11.218C113.119 11.5727 112.835 12.0347 112.667 12.604V17H111.435V12.912C111.435 12.1373 111.313 11.5727 111.071 11.218C110.828 10.854 110.464 10.672 109.979 10.672C109.493 10.672 109.045 10.8493 108.635 11.204C108.233 11.5493 107.949 12.0113 107.781 12.59V17H106.549V9.692H107.669V11.26C107.967 10.7187 108.355 10.3033 108.831 10.014C109.307 9.71533 109.843 9.566 110.441 9.566C111.047 9.566 111.533 9.734 111.897 10.07C112.261 10.3967 112.485 10.8213 112.569 11.344C112.895 10.7653 113.292 10.3267 113.759 10.028C114.225 9.72 114.757 9.566 115.355 9.566C115.775 9.566 116.125 9.64533 116.405 9.804C116.694 9.95333 116.923 10.168 117.091 10.448C117.259 10.7187 117.38 11.0407 117.455 11.414C117.529 11.7873 117.567 12.1933 117.567 12.632V17ZM122.716 17.14C122.166 17.14 121.662 17.042 121.204 16.846C120.756 16.6407 120.364 16.3653 120.028 16.02C119.702 15.6653 119.445 15.2593 119.258 14.802C119.081 14.3447 118.992 13.8593 118.992 13.346C118.992 12.6553 119.151 12.0253 119.468 11.456C119.786 10.8867 120.224 10.4293 120.784 10.084C121.354 9.73867 122.002 9.566 122.73 9.566C123.468 9.566 124.107 9.74333 124.648 10.098C125.199 10.4433 125.624 10.9007 125.922 11.47C126.23 12.03 126.384 12.6367 126.384 13.29C126.384 13.3833 126.38 13.4767 126.37 13.57C126.37 13.654 126.366 13.7193 126.356 13.766H120.294C120.332 14.242 120.462 14.6667 120.686 15.04C120.92 15.404 121.218 15.6933 121.582 15.908C121.946 16.1133 122.338 16.216 122.758 16.216C123.206 16.216 123.626 16.104 124.018 15.88C124.42 15.656 124.695 15.362 124.844 14.998L125.908 15.292C125.75 15.6467 125.512 15.964 125.194 16.244C124.886 16.524 124.518 16.7433 124.088 16.902C123.668 17.0607 123.211 17.14 122.716 17.14ZM120.252 12.912H125.236C125.199 12.436 125.064 12.016 124.83 11.652C124.597 11.288 124.298 11.0033 123.934 10.798C123.57 10.5927 123.169 10.49 122.73 10.49C122.301 10.49 121.904 10.5927 121.54 10.798C121.176 11.0033 120.878 11.288 120.644 11.652C120.42 12.016 120.29 12.436 120.252 12.912ZM134.096 17H132.864V12.912C132.864 12.1373 132.742 11.5727 132.5 11.218C132.266 10.854 131.907 10.672 131.422 10.672C131.086 10.672 130.75 10.756 130.414 10.924C130.087 11.092 129.793 11.3207 129.532 11.61C129.28 11.89 129.098 12.2167 128.986 12.59V17H127.754V9.692H128.874V11.26C129.07 10.9147 129.322 10.616 129.63 10.364C129.938 10.112 130.288 9.916 130.68 9.776C131.072 9.636 131.482 9.566 131.912 9.566C132.332 9.566 132.682 9.64533 132.962 9.804C133.251 9.95333 133.475 10.168 133.634 10.448C133.802 10.7187 133.918 11.0407 133.984 11.414C134.058 11.7873 134.096 12.1933 134.096 12.632V17ZM139.723 16.636C139.621 16.6827 139.481 16.7433 139.303 16.818C139.126 16.8927 138.921 16.958 138.687 17.014C138.454 17.07 138.207 17.098 137.945 17.098C137.647 17.098 137.371 17.0467 137.119 16.944C136.867 16.832 136.667 16.664 136.517 16.44C136.368 16.2067 136.293 15.9173 136.293 15.572V10.658H135.299V9.692H136.293V7.256H137.525V9.692H139.163V10.658H137.525V15.194C137.544 15.4553 137.633 15.6513 137.791 15.782C137.95 15.9033 138.137 15.964 138.351 15.964C138.594 15.964 138.818 15.922 139.023 15.838C139.229 15.754 139.364 15.6933 139.429 15.656L139.723 16.636ZM148.34 17.14C147.743 17.14 147.211 16.9907 146.744 16.692C146.277 16.3933 145.909 16.0153 145.638 15.558V19.982H144.406V9.692H145.498V11.064C145.787 10.616 146.165 10.2567 146.632 9.986C147.099 9.706 147.607 9.566 148.158 9.566C148.662 9.566 149.124 9.66867 149.544 9.874C149.964 10.0793 150.328 10.3593 150.636 10.714C150.944 11.0687 151.182 11.4747 151.35 11.932C151.527 12.38 151.616 12.8513 151.616 13.346C151.616 14.0367 151.476 14.6713 151.196 15.25C150.925 15.8287 150.543 16.2907 150.048 16.636C149.553 16.972 148.984 17.14 148.34 17.14ZM147.962 16.076C148.326 16.076 148.653 16.0013 148.942 15.852C149.241 15.6933 149.493 15.488 149.698 15.236C149.913 14.9747 150.076 14.6807 150.188 14.354C150.3 14.0273 150.356 13.6913 150.356 13.346C150.356 12.982 150.291 12.6367 150.16 12.31C150.039 11.9833 149.861 11.694 149.628 11.442C149.404 11.19 149.138 10.994 148.83 10.854C148.531 10.7047 148.205 10.63 147.85 10.63C147.626 10.63 147.393 10.672 147.15 10.756C146.917 10.84 146.693 10.9613 146.478 11.12C146.263 11.2693 146.081 11.442 145.932 11.638C145.783 11.834 145.685 12.044 145.638 12.268V14.354C145.778 14.6713 145.965 14.9607 146.198 15.222C146.431 15.4833 146.702 15.6933 147.01 15.852C147.318 16.0013 147.635 16.076 147.962 16.076ZM156.993 10.77C156.377 10.7793 155.831 10.938 155.355 11.246C154.888 11.5447 154.557 11.96 154.361 12.492V17H153.129V9.692H154.277V11.386C154.529 10.882 154.86 10.476 155.271 10.168C155.691 9.85067 156.129 9.67333 156.587 9.636C156.68 9.636 156.759 9.636 156.825 9.636C156.89 9.636 156.946 9.64067 156.993 9.65V10.77ZM161.229 17.14C160.678 17.14 160.179 17.042 159.731 16.846C159.283 16.6407 158.896 16.3653 158.569 16.02C158.242 15.6653 157.99 15.2593 157.813 14.802C157.636 14.3447 157.547 13.864 157.547 13.36C157.547 12.8467 157.636 12.3613 157.813 11.904C157.99 11.4467 158.242 11.0453 158.569 10.7C158.896 10.3453 159.283 10.07 159.731 9.874C160.188 9.66867 160.688 9.566 161.229 9.566C161.78 9.566 162.279 9.66867 162.727 9.874C163.175 10.07 163.562 10.3453 163.889 10.7C164.225 11.0453 164.482 11.4467 164.659 11.904C164.836 12.3613 164.925 12.8467 164.925 13.36C164.925 13.864 164.836 14.3447 164.659 14.802C164.482 15.2593 164.23 15.6653 163.903 16.02C163.576 16.3653 163.184 16.6407 162.727 16.846C162.279 17.042 161.78 17.14 161.229 17.14ZM158.807 13.374C158.807 13.878 158.914 14.3353 159.129 14.746C159.353 15.1567 159.647 15.4833 160.011 15.726C160.375 15.9593 160.781 16.076 161.229 16.076C161.677 16.076 162.083 15.9547 162.447 15.712C162.82 15.4693 163.114 15.1427 163.329 14.732C163.553 14.312 163.665 13.85 163.665 13.346C163.665 12.842 163.553 12.3847 163.329 11.974C163.114 11.5633 162.82 11.2367 162.447 10.994C162.083 10.7513 161.677 10.63 161.229 10.63C160.781 10.63 160.375 10.756 160.011 11.008C159.647 11.2507 159.353 11.5773 159.129 11.988C158.914 12.3987 158.807 12.8607 158.807 13.374ZM169.652 17.14C169.101 17.14 168.597 17.042 168.14 16.846C167.692 16.6407 167.3 16.3607 166.964 16.006C166.637 15.6513 166.38 15.2453 166.194 14.788C166.016 14.3307 165.928 13.8453 165.928 13.332C165.928 12.6413 166.082 12.0113 166.39 11.442C166.698 10.8727 167.132 10.42 167.692 10.084C168.252 9.73867 168.9 9.566 169.638 9.566C170.356 9.566 170.982 9.72933 171.514 10.056C172.055 10.3733 172.456 10.8027 172.718 11.344L171.514 11.722C171.327 11.3767 171.066 11.1107 170.73 10.924C170.394 10.728 170.02 10.63 169.61 10.63C169.162 10.63 168.751 10.7467 168.378 10.98C168.014 11.2133 167.724 11.5353 167.51 11.946C167.295 12.3473 167.188 12.8093 167.188 13.332C167.188 13.8453 167.295 14.312 167.51 14.732C167.734 15.1427 168.028 15.4693 168.392 15.712C168.765 15.9547 169.176 16.076 169.624 16.076C169.913 16.076 170.188 16.0247 170.45 15.922C170.72 15.8193 170.954 15.684 171.15 15.516C171.355 15.3387 171.495 15.1473 171.57 14.942L172.774 15.306C172.624 15.6607 172.396 15.978 172.088 16.258C171.789 16.5287 171.43 16.7433 171.01 16.902C170.599 17.0607 170.146 17.14 169.652 17.14ZM177.335 17.14C176.785 17.14 176.281 17.042 175.823 16.846C175.375 16.6407 174.983 16.3653 174.647 16.02C174.321 15.6653 174.064 15.2593 173.877 14.802C173.7 14.3447 173.611 13.8593 173.611 13.346C173.611 12.6553 173.77 12.0253 174.087 11.456C174.405 10.8867 174.843 10.4293 175.403 10.084C175.973 9.73867 176.621 9.566 177.349 9.566C178.087 9.566 178.726 9.74333 179.267 10.098C179.818 10.4433 180.243 10.9007 180.541 11.47C180.849 12.03 181.003 12.6367 181.003 13.29C181.003 13.3833 180.999 13.4767 180.989 13.57C180.989 13.654 180.985 13.7193 180.975 13.766H174.913C174.951 14.242 175.081 14.6667 175.305 15.04C175.539 15.404 175.837 15.6933 176.201 15.908C176.565 16.1133 176.957 16.216 177.377 16.216C177.825 16.216 178.245 16.104 178.637 15.88C179.039 15.656 179.314 15.362 179.463 14.998L180.527 15.292C180.369 15.6467 180.131 15.964 179.813 16.244C179.505 16.524 179.137 16.7433 178.707 16.902C178.287 17.0607 177.83 17.14 177.335 17.14ZM174.871 12.912H179.855C179.818 12.436 179.683 12.016 179.449 11.652C179.216 11.288 178.917 11.0033 178.553 10.798C178.189 10.5927 177.788 10.49 177.349 10.49C176.92 10.49 176.523 10.5927 176.159 10.798C175.795 11.0033 175.497 11.288 175.263 11.652C175.039 12.016 174.909 12.436 174.871 12.912ZM184.879 17.14C184.272 17.14 183.703 17.042 183.171 16.846C182.639 16.6407 182.182 16.3373 181.799 15.936L182.275 15.068C182.695 15.46 183.115 15.74 183.535 15.908C183.955 16.076 184.384 16.16 184.823 16.16C185.327 16.16 185.738 16.0667 186.055 15.88C186.372 15.684 186.531 15.3993 186.531 15.026C186.531 14.7553 186.447 14.5547 186.279 14.424C186.12 14.2933 185.892 14.186 185.593 14.102C185.294 14.0087 184.94 13.906 184.529 13.794C184.025 13.6447 183.6 13.486 183.255 13.318C182.91 13.15 182.648 12.94 182.471 12.688C182.294 12.436 182.205 12.1187 182.205 11.736C182.205 11.2693 182.326 10.8773 182.569 10.56C182.812 10.2333 183.143 9.986 183.563 9.818C183.992 9.65 184.478 9.566 185.019 9.566C185.56 9.566 186.05 9.65 186.489 9.818C186.928 9.986 187.306 10.2333 187.623 10.56L187.063 11.414C186.774 11.1153 186.456 10.896 186.111 10.756C185.766 10.6067 185.378 10.532 184.949 10.532C184.697 10.532 184.45 10.5647 184.207 10.63C183.964 10.686 183.764 10.7933 183.605 10.952C183.446 11.1013 183.367 11.316 183.367 11.596C183.367 11.8293 183.428 12.016 183.549 12.156C183.68 12.2867 183.866 12.3987 184.109 12.492C184.361 12.5853 184.664 12.688 185.019 12.8C185.57 12.9587 186.046 13.1173 186.447 13.276C186.858 13.4347 187.175 13.64 187.399 13.892C187.623 14.144 187.735 14.494 187.735 14.942C187.735 15.6327 187.474 16.174 186.951 16.566C186.428 16.9487 185.738 17.14 184.879 17.14ZM191.715 17.14C191.108 17.14 190.539 17.042 190.007 16.846C189.475 16.6407 189.018 16.3373 188.635 15.936L189.111 15.068C189.531 15.46 189.951 15.74 190.371 15.908C190.791 16.076 191.22 16.16 191.659 16.16C192.163 16.16 192.574 16.0667 192.891 15.88C193.208 15.684 193.367 15.3993 193.367 15.026C193.367 14.7553 193.283 14.5547 193.115 14.424C192.956 14.2933 192.728 14.186 192.429 14.102C192.13 14.0087 191.776 13.906 191.365 13.794C190.861 13.6447 190.436 13.486 190.091 13.318C189.746 13.15 189.484 12.94 189.307 12.688C189.13 12.436 189.041 12.1187 189.041 11.736C189.041 11.2693 189.162 10.8773 189.405 10.56C189.648 10.2333 189.979 9.986 190.399 9.818C190.828 9.65 191.314 9.566 191.855 9.566C192.396 9.566 192.886 9.65 193.325 9.818C193.764 9.986 194.142 10.2333 194.459 10.56L193.899 11.414C193.61 11.1153 193.292 10.896 192.947 10.756C192.602 10.6067 192.214 10.532 191.785 10.532C191.533 10.532 191.286 10.5647 191.043 10.63C190.8 10.686 190.6 10.7933 190.441 10.952C190.282 11.1013 190.203 11.316 190.203 11.596C190.203 11.8293 190.264 12.016 190.385 12.156C190.516 12.2867 190.702 12.3987 190.945 12.492C191.197 12.5853 191.5 12.688 191.855 12.8C192.406 12.9587 192.882 13.1173 193.283 13.276C193.694 13.4347 194.011 13.64 194.235 13.892C194.459 14.144 194.571 14.494 194.571 14.942C194.571 15.6327 194.31 16.174 193.787 16.566C193.264 16.9487 192.574 17.14 191.715 17.14ZM196.045 17V9.692H197.277V17H196.045ZM196.045 8.32V6.78H197.277V8.32H196.045ZM205.613 17H204.381V12.912C204.381 12.1373 204.26 11.5727 204.017 11.218C203.784 10.854 203.425 10.672 202.939 10.672C202.603 10.672 202.267 10.756 201.931 10.924C201.605 11.092 201.311 11.3207 201.049 11.61C200.797 11.89 200.615 12.2167 200.503 12.59V17H199.271V9.692H200.391V11.26C200.587 10.9147 200.839 10.616 201.147 10.364C201.455 10.112 201.805 9.916 202.197 9.776C202.589 9.636 203 9.566 203.429 9.566C203.849 9.566 204.199 9.64533 204.479 9.804C204.769 9.95333 204.993 10.168 205.151 10.448C205.319 10.7187 205.436 11.0407 205.501 11.414C205.576 11.7873 205.613 12.1933 205.613 12.632V17ZM210.441 17.084C209.946 17.084 209.489 16.986 209.069 16.79C208.658 16.5847 208.304 16.3093 208.005 15.964C207.706 15.6093 207.473 15.208 207.305 14.76C207.146 14.312 207.067 13.8453 207.067 13.36C207.067 12.8467 207.146 12.3613 207.305 11.904C207.473 11.4467 207.706 11.0453 208.005 10.7C208.313 10.3453 208.672 10.07 209.083 9.874C209.494 9.66867 209.951 9.566 210.455 9.566C211.062 9.566 211.589 9.71533 212.037 10.014C212.494 10.3127 212.877 10.6907 213.185 11.148V9.692H214.277V16.916C214.277 17.6067 214.109 18.19 213.773 18.666C213.446 19.142 212.998 19.5013 212.429 19.744C211.869 19.996 211.244 20.122 210.553 20.122C209.732 20.122 209.06 19.9773 208.537 19.688C208.014 19.3987 207.58 19.0067 207.235 18.512L207.949 17.882C208.238 18.3113 208.612 18.6333 209.069 18.848C209.536 19.0627 210.03 19.17 210.553 19.17C211.001 19.17 211.412 19.086 211.785 18.918C212.168 18.7593 212.471 18.512 212.695 18.176C212.928 17.84 213.045 17.42 213.045 16.916V15.628C212.774 16.076 212.401 16.4307 211.925 16.692C211.458 16.9533 210.964 17.084 210.441 17.084ZM210.819 16.076C211.08 16.076 211.332 16.0293 211.575 15.936C211.818 15.8427 212.042 15.7213 212.247 15.572C212.452 15.4133 212.625 15.236 212.765 15.04C212.905 14.844 212.998 14.6433 213.045 14.438V12.338C212.914 12.002 212.728 11.708 212.485 11.456C212.242 11.1947 211.967 10.994 211.659 10.854C211.351 10.7047 211.034 10.63 210.707 10.63C210.334 10.63 209.998 10.7093 209.699 10.868C209.41 11.0267 209.162 11.2413 208.957 11.512C208.752 11.7733 208.593 12.0673 208.481 12.394C208.369 12.7207 208.313 13.052 208.313 13.388C208.313 13.752 208.378 14.0973 208.509 14.424C208.64 14.7413 208.817 15.026 209.041 15.278C209.265 15.53 209.531 15.726 209.839 15.866C210.147 16.006 210.474 16.076 210.819 16.076Z" fill="#616161"/>
</svg>
