<svg width="24" height="24" viewBox="0 0 24 24" fill="none" xmlns="http://www.w3.org/2000/svg">
<path d="M10.95 14.8572L15.908 9.89917L15.194 9.18617L10.95 13.4302L8.812 11.2912L8.098 12.0052L10.95 14.8572ZM12 20.9592C9.99133 20.3632 8.32233 19.1465 6.993 17.3092C5.66367 15.4718 4.99933 13.4018 5 11.0992V5.69117L12 3.07617L19 5.69117V11.0992C19 13.4018 18.3357 15.4718 17.007 17.3092C15.6783 19.1465 14.0093 20.3642 12 20.9622M12 19.9002C13.7333 19.3502 15.1667 18.2502 16.3 16.6002C17.4333 14.9502 18 13.1168 18 11.1002V6.37417L12 4.14417L6 6.37417V11.0992C6 13.1158 6.56667 14.9492 7.7 16.5992C8.83333 18.2492 10.2667 19.3502 12 19.9002Z" fill="#5F561C"/>
</svg>
