<svg width="24" height="24" viewBox="0 0 24 24" fill="none" xmlns="http://www.w3.org/2000/svg">
<g clip-path="url(#clip0_1_2702)">
<path fill-rule="evenodd" clip-rule="evenodd" d="M11.3029 17.3435C10.6967 17.098 10.0468 16.9789 9.39289 16.9935C9.15876 16.9907 8.92629 16.9537 8.70289 16.8835C8.63309 16.8714 8.56735 16.8423 8.51152 16.7987C8.45569 16.7551 8.41151 16.6983 8.38289 16.6335C7.93289 15.5035 9.95289 15.3435 10.7629 15.5735C10.798 15.5867 10.8354 15.5927 10.8729 15.5911C10.9103 15.5895 10.9471 15.5804 10.981 15.5643C11.0149 15.5483 11.0452 15.5256 11.0701 15.4976C11.0951 15.4696 11.1142 15.4369 11.1262 15.4014C11.1383 15.3659 11.1431 15.3283 11.1403 15.2909C11.1376 15.2535 11.1274 15.217 11.1103 15.1836C11.0932 15.1503 11.0696 15.1207 11.0408 15.0966C11.0121 15.0725 10.9788 15.0545 10.9429 15.0435C10.6229 14.9221 10.285 14.8545 9.94289 14.8435C9.96301 14.7982 9.97972 14.7514 9.99289 14.7035C10.0196 14.6155 10.0362 14.5255 10.0429 14.4335C10.0485 14.347 10.0485 14.2601 10.0429 14.1735C10.0429 13.9435 9.95289 13.7535 9.92289 13.5335C9.93148 13.4605 9.91468 13.3868 9.87532 13.3248C9.83595 13.2627 9.77642 13.2161 9.70674 13.1927C9.63705 13.1694 9.56145 13.1707 9.49264 13.1966C9.42383 13.2224 9.36601 13.2711 9.32889 13.3345C9.30858 13.3716 9.29631 13.4124 9.29289 13.4545C9.18956 13.6572 9.10289 13.8672 9.03289 14.0845C9.00289 14.1712 8.98289 14.2612 8.97289 14.3545C8.96853 14.4478 8.96853 14.5413 8.97289 14.6345C8.98689 14.7119 9.00689 14.7885 9.03289 14.8645C8.77356 14.8992 8.52356 14.9692 8.28289 15.0745C8.10163 15.1448 7.93635 15.2508 7.79687 15.3862C7.6574 15.5217 7.54659 15.6838 7.47102 15.8629C7.39545 16.042 7.35668 16.2345 7.357 16.4289C7.35732 16.6233 7.39673 16.8157 7.47289 16.9945C7.53476 17.2015 7.64369 17.3914 7.79115 17.5492C7.93861 17.7071 8.12061 17.8287 8.32289 17.9045C8.92289 18.0705 9.54089 18.1615 10.1629 18.1745C10.5429 18.1745 10.9229 18.1745 10.9929 18.6145C11.0629 19.0545 10.6629 19.3345 10.1929 19.5045C9.64474 19.7147 9.04782 19.7633 8.47289 19.6445C8.29859 19.5945 8.1379 19.5056 8.00289 19.3845C7.86751 19.2633 7.74055 19.133 7.62289 18.9945C7.56985 18.9282 7.49264 18.8857 7.40825 18.8763C7.32386 18.867 7.2392 18.8915 7.17289 18.9445C7.10659 18.9976 7.06407 19.0748 7.05469 19.1592C7.04532 19.2436 7.06985 19.3282 7.12289 19.3945C7.28689 19.6305 7.47689 19.8439 7.69289 20.0345C7.85866 20.1663 8.0443 20.271 8.24289 20.3445C8.42756 20.4125 8.61756 20.4592 8.81289 20.4845V20.5545C8.80289 20.6439 8.80289 20.7339 8.81289 20.8245C8.80158 20.9108 8.80158 20.9982 8.81289 21.0845C8.81289 21.3145 8.89289 21.5045 8.93289 21.7245C8.92164 21.7685 8.91986 21.8143 8.92768 21.859C8.93549 21.9037 8.95273 21.9463 8.97823 21.9838C9.00373 22.0213 9.03693 22.053 9.07561 22.0767C9.11429 22.1004 9.15757 22.1156 9.20258 22.1214C9.24759 22.1271 9.29331 22.1232 9.33669 22.1099C9.38007 22.0966 9.42012 22.0742 9.4542 22.0442C9.48827 22.0143 9.51559 21.9774 9.53433 21.9361C9.55306 21.8947 9.5628 21.8499 9.56289 21.8045C9.66289 21.5999 9.74622 21.3899 9.81289 21.1745C9.84289 21.0859 9.86289 20.9959 9.87289 20.9045C9.8875 20.8118 9.8875 20.7173 9.87289 20.6245C9.87757 20.578 9.87757 20.5311 9.87289 20.4845C10.2646 20.454 10.6491 20.3629 11.0129 20.2145C11.3538 20.0663 11.6359 19.8092 11.8151 19.4835C11.9942 19.1578 12.0603 18.7818 12.0029 18.4145C11.9812 18.1929 11.9062 17.9799 11.7843 17.7936C11.6624 17.6073 11.4972 17.4522 11.3029 17.3435ZM12.3029 10.2235C11.9629 10.6435 12.9229 10.9535 13.1929 10.6035C13.3223 10.4386 13.4144 10.2475 13.4629 10.0435C13.4629 9.78354 13.0329 9.65354 12.6829 9.87354C12.6529 9.92354 12.3729 10.1435 12.3029 10.2235Z" fill="#5F561C"/>
<path fill-rule="evenodd" clip-rule="evenodd" d="M20.913 6.64293C20.8384 6.60245 20.7509 6.59234 20.669 6.61469C20.587 6.63704 20.5168 6.69014 20.473 6.76293C20.3396 7.00423 20.155 7.21341 19.9321 7.37579C19.7093 7.53818 19.4536 7.64983 19.183 7.70293C19.0537 7.72293 18.9237 7.72293 18.793 7.70293C18.1324 7.57293 17.4657 7.49626 16.793 7.47293C16.053 7.55293 14.793 8.34293 13.723 8.53293C13.4825 8.62332 13.2164 8.61766 12.98 8.51712C12.7435 8.41657 12.5548 8.22887 12.453 7.99293C12.293 7.67293 12.593 7.52293 12.893 7.33293C13.7258 6.93958 14.4655 6.37375 15.063 5.67293C15.1904 5.46493 15.2676 5.23012 15.2884 4.98711C15.3092 4.74409 15.2732 4.49957 15.183 4.27293C14.763 3.07293 14.023 2.74293 13.273 2.86293C12.8594 2.92252 12.4647 3.07492 12.1183 3.30871C11.772 3.5425 11.483 3.85162 11.273 4.21293C11.143 4.46293 11.493 4.75293 11.783 4.54293C12.0776 4.13155 12.5109 3.84036 13.003 3.72293C13.563 3.50293 14.113 3.72293 14.353 4.55293C14.513 5.12293 14.093 5.43293 13.633 5.71293C13.173 5.99293 11.843 6.81293 11.743 6.91293C11.5288 7.11233 11.3907 7.38007 11.3524 7.6702C11.3141 7.96033 11.378 8.25476 11.533 8.50293C12.483 10.3029 14.163 9.60293 15.303 9.06293C15.8239 8.7749 16.3694 8.53395 16.933 8.34293C17.5604 8.34026 18.1837 8.38693 18.803 8.48293C18.999 8.48826 19.1924 8.46826 19.383 8.42293C19.7481 8.32928 20.0891 8.15882 20.383 7.92293C20.6405 7.68428 20.8509 7.39933 21.003 7.08293C21.0463 7.01177 21.0611 6.92687 21.0444 6.84526C21.0277 6.76365 20.9808 6.69137 20.913 6.64293Z" fill="#5F561C"/>
<path fill-rule="evenodd" clip-rule="evenodd" d="M12.2327 5.63338C10.6227 3.69338 8.0127 4.63338 7.8627 4.63338C7.13103 4.93235 6.52637 5.47689 6.1527 6.17338C5.1527 7.79338 5.0827 9.84338 7.0127 10.8634C7.2727 10.9734 8.1127 10.6434 7.6127 10.3534C6.2327 9.70338 6.1627 8.04338 7.0027 6.74338C7.43734 6.09004 8.09495 5.61727 8.8527 5.41338C9.63341 5.21663 10.4585 5.30162 11.1827 5.65338C11.3727 5.75338 11.5457 5.88538 11.6927 6.04338C12.0027 6.38338 12.5327 5.99338 12.2327 5.63338ZM21.3227 3.86338L18.8227 2.52338C18.1027 2.08338 17.4227 1.43338 16.6927 0.923381C16.1625 0.521108 15.5574 0.228728 14.9127 0.0633806C14.3444 -0.0467586 13.7575 -0.0129586 13.2056 0.161702C12.6537 0.336363 12.1542 0.646333 11.7527 1.06338C11.2367 1.60138 10.7634 2.17471 10.3327 2.78338C10.0847 3.13405 9.86803 3.50405 9.6827 3.89338C9.7827 4.11338 9.9727 4.17338 10.2427 4.06338C10.4327 3.76471 10.6427 3.48138 10.8727 3.21338C11.3227 2.68938 11.8127 2.20605 12.3427 1.76338C12.6474 1.47082 13.0188 1.25692 13.4248 1.14018C13.8308 1.02344 14.2591 1.00738 14.6727 1.09338C15.3235 1.28832 15.9335 1.60006 16.4727 2.01338C17.09 2.45871 17.73 2.86871 18.3927 3.24338L21.0527 4.42338C21.09 4.44185 21.1306 4.45262 21.1722 4.45505C21.2137 4.45748 21.2553 4.45152 21.2945 4.43752C21.3337 4.42352 21.3697 4.40177 21.4003 4.37357C21.4309 4.34537 21.4555 4.3113 21.4727 4.27338C21.5043 4.19875 21.5063 4.11492 21.4785 4.03883C21.4506 3.96273 21.395 3.90003 21.3227 3.86338ZM10.8027 10.8734C10.1354 10.8534 9.4687 10.8734 8.8027 10.9334C8.5627 10.9334 6.3627 11.2634 5.8927 11.3534C5.41211 11.4171 4.96763 11.6429 4.6327 11.9934C4.4727 12.2634 4.4427 12.6334 4.9727 13.0734C5.02316 13.1178 5.08596 13.1457 5.1527 13.1534C4.81585 13.5587 4.51157 13.9901 4.2427 14.4434C3.92257 15.0012 3.63865 15.5791 3.3927 16.1734C3.2227 16.5834 3.0627 17.0034 2.9227 17.4334C2.78137 17.8694 2.66804 18.3127 2.5827 18.7634C2.52044 19.0929 2.49362 19.4281 2.5027 19.7634C2.5097 20.1024 2.5597 20.4384 2.6527 20.7634C2.72937 20.9967 2.8227 21.2234 2.9327 21.4434C3.0427 21.6647 3.16604 21.878 3.3027 22.0834C3.80409 22.8994 4.59231 23.4986 5.5127 23.7634C6.7957 23.9634 8.0977 24.0214 9.3927 23.9334C10.8601 24.0587 12.3372 24.0083 13.7927 23.7834C14.5065 23.6491 15.1624 23.3002 15.6727 22.7834C15.9721 22.4531 16.1942 22.0602 16.3227 21.6334C16.4937 21.0534 16.5717 20.4484 16.5527 19.8434C16.5743 18.7166 16.4567 17.5914 16.2027 16.4934C16.0211 15.734 15.7063 15.0128 15.2727 14.3634C15.1055 14.1276 14.9181 13.9068 14.7127 13.7034C14.5139 13.5077 14.3035 13.324 14.0827 13.1534C13.9825 13.082 13.8791 13.0152 13.7727 12.9534L13.9527 12.7934C14.0426 12.713 14.1141 12.6143 14.1624 12.5039C14.2107 12.3934 14.2347 12.2739 14.2327 12.1534C14.2247 12.0112 14.1834 11.8729 14.1122 11.7496C14.041 11.6263 13.9418 11.5214 13.8227 11.4434C13.0027 10.8034 12.1827 10.9234 10.8027 10.8734ZM13.2427 12.1134C13.2461 12.1433 13.2461 12.1735 13.2427 12.2034C13.132 12.2994 13.0287 12.4027 12.9327 12.5134C12.8444 12.6165 12.7827 12.7397 12.753 12.8722C12.7234 13.0047 12.7267 13.1425 12.7627 13.2734C12.792 13.378 12.8511 13.4718 12.9327 13.5434C13.0527 13.6634 13.3827 13.8534 13.4527 13.9134C13.6394 14.0667 13.816 14.23 13.9827 14.4034C14.146 14.564 14.2894 14.7407 14.4127 14.9334C14.7704 15.4971 15.0244 16.1202 15.1627 16.7734C15.3797 17.7884 15.4727 18.8264 15.4427 19.8634C15.4487 20.2834 15.4057 20.7034 15.3127 21.1134C15.2467 21.4842 15.0807 21.8299 14.8327 22.1134C14.3051 22.5704 13.6398 22.8379 12.9427 22.8734C11.7512 22.9664 10.5542 22.9664 9.3627 22.8734C8.14602 23.0006 6.91939 23.0006 5.7027 22.8734C4.99866 22.6688 4.39392 22.2134 4.0027 21.5934C3.8827 21.4234 3.7727 21.2467 3.6727 21.0634C3.57251 20.8895 3.49202 20.7051 3.4327 20.5134C3.344 20.2554 3.29347 19.9859 3.2827 19.7134C3.25322 19.4342 3.25322 19.1526 3.2827 18.8734C3.35137 18.4507 3.4447 18.034 3.5627 17.6234C3.6827 17.2034 3.8227 16.7934 3.9727 16.3934C4.18847 15.822 4.44582 15.2672 4.7427 14.7334C5.02499 14.2012 5.36001 13.6987 5.7427 13.2334C6.0027 12.9334 5.5827 12.7934 5.3127 12.5734C5.1927 12.4634 5.1227 12.3934 5.1127 12.3134C5.1027 12.2334 5.2027 12.2534 5.2627 12.2134C5.49649 12.1022 5.74613 12.028 6.0027 11.9934C6.7827 11.8634 7.5827 11.7534 8.3827 11.6934C9.16726 11.6221 9.95583 11.6053 10.7427 11.6434C11.2987 11.6487 11.852 11.6854 12.4027 11.7534C12.7097 11.7964 13.0007 11.9204 13.2427 12.1134Z" fill="#5F561C"/>
</g>
<defs>
<clipPath id="clip0_1_2702">
<rect width="24" height="24" fill="white"/>
</clipPath>
</defs>
</svg>
