<svg width="24" height="24" viewBox="0 0 24 24" fill="none" xmlns="http://www.w3.org/2000/svg">
<path d="M12 19.6457C10.649 18.6947 9.085 18.0887 7.445 17.8847C6.28185 17.6484 5.09682 17.5368 3.91 17.5517C3.75814 17.5531 3.60752 17.5243 3.46684 17.4671C3.32616 17.4099 3.1982 17.3254 3.09035 17.2185C2.98251 17.1116 2.8969 16.9843 2.83849 16.8442C2.78007 16.704 2.74999 16.5536 2.75 16.4017L2.771 5.50875C2.77036 5.21647 2.88103 4.93492 3.08053 4.72131C3.28002 4.5077 3.55336 4.37806 3.845 4.35875C5.05314 4.33473 6.2603 4.4427 7.445 4.68075C9.08322 4.8921 10.646 5.49663 12 6.44275M12 19.6457V6.44275M12 19.6457C13.351 18.6947 14.915 18.0887 16.555 17.8847C17.7182 17.6484 18.9032 17.5368 20.09 17.5517C20.2419 17.5531 20.3925 17.5243 20.5332 17.4671C20.6738 17.4099 20.8018 17.3254 20.9096 17.2185C21.0175 17.1116 21.1031 16.9843 21.1615 16.8442C21.2199 16.704 21.25 16.5536 21.25 16.4017L21.228 5.50875C21.2287 5.21663 21.1181 4.93522 20.9188 4.72163C20.7196 4.50805 20.4465 4.37831 20.155 4.35875C18.9469 4.33473 17.7397 4.4427 16.555 4.68075C14.9168 4.8921 13.354 5.49663 12 6.44275" stroke="#5F561C" stroke-width="1.5" stroke-linecap="round" stroke-linejoin="round"/>
</svg>
