<svg width="72" height="72" viewBox="0 0 72 72" fill="none" xmlns="http://www.w3.org/2000/svg">
<path d="M59.9992 51C61.7192 51 63.1692 51.6 64.3492 52.8C65.5292 54 66.1092 55.4 66.0892 57L41.9992 66L20.9992 60V33H26.8492L48.6592 41.07C50.2192 41.69 50.9992 42.81 50.9992 44.43C50.9992 45.37 50.6592 46.19 49.9792 46.89C49.2992 47.59 48.4392 47.96 47.3992 48H38.9992L33.7492 45.99L32.7592 48.81L38.9992 51H59.9992ZM47.9992 9.69C50.1192 7.23 52.8192 6 56.0992 6C58.8192 6 61.1192 7 62.9992 9C64.8792 11 65.8792 13.3 65.9992 15.9C65.9992 17.96 64.9992 20.42 62.9992 23.28C60.9992 26.14 59.0292 28.53 57.0892 30.45C55.1492 32.37 52.1192 35.22 47.9992 39C43.8392 35.22 40.7792 32.37 38.8192 30.45C36.8592 28.53 34.8892 26.14 32.9092 23.28C30.9292 20.42 29.9592 17.96 29.9992 15.9C29.9992 13.18 30.9692 10.88 32.9092 9C34.8492 7.12 37.1892 6.12 39.9292 6C43.1292 6 45.8192 7.23 47.9992 9.69ZM2.95117 33H14.9992V66H2.95117V33Z" fill="white"/>
</svg>
